<?xml version="1.0" standalone="no"?>
<!DOCTYPE svg PUBLIC "-//W3C//DTD SVG 20010904//EN"
 "http://www.w3.org/TR/2001/REC-SVG-20010904/DTD/svg10.dtd">
<svg version="1.0" xmlns="http://www.w3.org/2000/svg"
 width="2143.000000pt" height="2143.000000pt" viewBox="0 0 2143.000000 2143.000000"
 preserveAspectRatio="xMidYMid meet">
<metadata>
Created by potrace 1.14, written by Peter Selinger 2001-2017
</metadata>
<g transform="translate(0.000000,2143.000000) scale(0.100000,-0.100000)"
fill="#000000" stroke="none">
<path d="M10289 21376 c-2 -2 -75 -7 -163 -11 -87 -3 -166 -8 -175 -10 -9 -1
-65 -6 -126 -10 -60 -4 -117 -8 -125 -10 -8 -1 -49 -6 -90 -10 -106 -9 -373
-43 -521 -65 -959 -145 -1916 -428 -2809 -832 -259 -117 -601 -290 -830 -421
-58 -33 -125 -71 -150 -85 -413 -231 -1084 -704 -1494 -1052 -799 -679 -1450
-1405 -2020 -2255 -58 -87 -106 -159 -106 -161 0 -1 -17 -29 -38 -61 -219
-332 -545 -942 -740 -1386 -193 -438 -383 -961 -487 -1337 -10 -36 -24 -84
-32 -108 -25 -80 -132 -526 -168 -700 -33 -163 -96 -527 -110 -637 -4 -27 -8
-61 -10 -75 -2 -14 -7 -47 -10 -75 -4 -27 -8 -61 -11 -75 -5 -39 -33 -316 -39
-405 -4 -44 -8 -97 -10 -119 -13 -128 -20 -383 -20 -756 0 -466 9 -706 40
-1010 18 -182 37 -347 40 -360 2 -8 6 -37 10 -65 14 -114 26 -194 72 -470 2
-16 25 -129 50 -250 354 -1723 1126 -3317 2267 -4680 312 -373 687 -761 1041
-1080 76 -68 313 -271 380 -325 44 -36 82 -67 85 -70 12 -13 236 -185 360
-277 487 -359 994 -670 1539 -943 180 -90 388 -190 396 -190 2 0 37 -16 78
-35 201 -92 578 -241 847 -333 604 -207 1256 -368 1850 -457 58 -9 116 -18
130 -20 30 -5 76 -11 190 -25 141 -17 152 -18 230 -25 41 -4 86 -8 99 -10 13
-2 67 -7 120 -10 53 -4 110 -8 126 -10 218 -28 1191 -27 1540 0 85 7 283 25
330 30 22 2 67 7 100 10 33 3 71 8 85 10 14 2 50 7 80 10 30 3 80 10 110 15
30 5 78 12 105 15 46 6 350 57 420 70 717 141 1295 308 1935 560 187 74 505
209 524 224 6 4 27 14 46 21 42 16 476 231 575 285 358 195 816 478 1080 667
558 399 991 764 1430 1204 131 132 329 339 387 406 11 13 35 40 54 61 29 30
206 242 368 437 61 75 347 462 432 585 691 1005 1202 2108 1513 3270 47 175
122 488 135 560 2 17 18 98 35 180 16 83 32 164 34 180 3 17 14 86 26 155 11
69 29 197 41 285 26 202 28 215 35 300 4 39 8 81 10 95 2 14 7 70 10 125 4 55
8 113 10 129 27 211 27 1267 0 1518 -2 18 -6 71 -10 118 -5 76 -14 160 -31
315 -12 116 -36 296 -50 385 -8 52 -17 111 -20 130 -2 19 -7 44 -9 56 -3 12
-7 39 -10 60 -4 21 -26 140 -51 264 -305 1537 -964 3009 -1913 4275 -408 545
-917 1102 -1391 1525 -52 47 -99 90 -105 96 -44 49 -454 381 -660 535 -382
287 -878 608 -1250 809 -44 24 -103 56 -132 72 -89 48 -462 233 -583 288 -674
308 -1403 554 -2105 710 -137 30 -395 83 -465 94 -19 3 -47 8 -61 11 -164 32
-625 92 -839 111 -41 3 -91 7 -110 9 -19 2 -87 7 -150 10 -63 4 -126 9 -140
12 -30 6 -1024 15 -1031 9z"/>
</g>
</svg>
